PathFileType	4	(X/Y/Z)	RBDS019\RBDS019runT45.trc
DataRate	CameraRate	NumFrames	NumMarkers	Units	OrigDataRate	OrigDataStartFrame	OrigNumFrames
150.000000	150.000000	4	33	mm	150.000000	2812	4500
Frame#	Time	L.ASIS			L.Heel.Bottom			L.Heel.Lateral			L.Heel.Top			L.Iliac.Crest			L.MT1			L.MT5			L.PSIS			L.Shank.Bottom.Lateral			L.Shank.Bottom.Medial			L.Shank.Top.Lateral			L.Shank.Top.Medial			L.Thigh.Bottom.Lateral			L.Thigh.Bottom.Medial			L.Thigh.Top.Lateral			L.Thigh.Top.Medial			R.ASIS			R.ASY			R.Heel.Bottom			R.Heel.Lateral			R.Heel.Top			R.Iliac.Crest			R.MT1			R.MT5			R.PSIS			R.Shank.Bottom.Lateral			R.Shank.Bottom.Medial			R.Shank.Top.Lateral			R.Shank.Top.Medial			R.Thigh.Bottom.Lateral			R.Thigh.Bottom.Medial			R.Thigh.Top.Lateral			R.Thigh.Top.Medial			
		X1	Y1	Z1	X2	Y2	Z2	X3	Y3	Z3	X4	Y4	Z4	X5	Y5	Z5	X6	Y6	Z6	X7	Y7	Z7	X8	Y8	Z8	X9	Y9	Z9	X10	Y10	Z10	X11	Y11	Z11	X12	Y12	Z12	X13	Y13	Z13	X14	Y14	Z14	X15	Y15	Z15	X16	Y16	Z16	X17	Y17	Z17	X18	Y18	Z18	X19	Y19	Z19	X20	Y20	Z20	X21	Y21	Z21	X22	Y22	Z22	X23	Y23	Z23	X24	Y24	Z24	X25	Y25	Z25	X26	Y26	Z26	X27	Y27	Z27	X28	Y28	Z28	X29	Y29	Z29	X30	Y30	Z30	X31	Y31	Z31	X32	Y32	Z32	X33	Y33	Z33	

2813	18.74666666666667	2365.306169350766	973.6925874087536	965.3171532145986	2531.836817733748	80.50632999004988	1014.214119463747	2557.890014183986	107.7090274553494	972.9745314938382	2525.669055398515	128.2684777169496	1014.058535605751	2308.092312233132	1036.009075799859	913.8629758646143	2718.968514788903	155.1040244468324	1066.630024625251	2701.324181460999	138.5706682263197	960.7957907987646	2210.611662877787	1017.599856947161	1015.769653140352	2565.814600410053	242.142046510742	961.2656579378514	2526.637194718039	234.5758570573107	992.5688536251146	2542.473711321873	317.2732005838461	943.1134478827818	2503.088941539086	314.4541118871608	978.1584559033358	2476.975105397112	656.5513705299587	921.0702107653927	2419.209105828138	616.1235709957833	937.8812105815421	2412.028447607823	741.5968347998313	899.449149167457	2355.849050490223	703.5139463149982	915.0123009643801	2369.077692924257	946.7992900002697	1181.874631602099	nan	nan	nan	1658.708386218826	449.6805525464504	1068.889782737847	1669.122003671813	419.0994207888604	1107.984749172108	1702.818350990254	446.1457851534601	1076.591819771854	2341.641760162357	1026.92663327994	1194.637417743062	1714.991800935172	263.3206046019242	1014.978512307246	1673.50501873746	272.4016804788953	1113.114184061293	2217.561110228829	1019.354389833469	1119.266129509584	1785.794808860916	412.8269275106014	1133.167832406021	1774.570484404927	453.5706761680913	1097.305235774647	1852.364180016858	454.3136440258605	1156.092293749574	1841.49226020668	492.0492894232186	1119.236805012588	2138.178123087728	616.3602797890998	1196.394083009261	2093.037439909903	644.7696979335283	1149.514235741184	2178.654533102615	717.0335704019325	1218.589009778573	2131.274742042174	744.0877966792045	1176.639441924101	
2814	18.75333333333333	2364.45223367375	973.884373805038	964.7876319730274	2546.256190496401	70.17427859607891	1015.100824786497	2571.42198439597	98.3457525951238	973.9064928843255	2537.242761805764	117.669602136279	1014.149289104969	2306.884133244425	1035.185417804975	913.5735371349759	2728.717792137483	156.4318291505754	1068.956813177906	2713.434274241443	137.2640601787926	963.0134736893458	2210.127958136816	1016.491068773548	1016.656140822773	2572.416001594911	234.2217892067992	961.1220479279374	2532.77484548192	224.851774121398	991.5092675023792	2545.492792665848	308.0846876110465	941.8033227116222	2505.30401018489	303.4931657443458	975.8914714273287	2469.523889448204	647.9303495614344	919.1932858355636	2410.621377463572	609.82609815363	937.4356253785759	2407.409481882568	735.3309573807925	898.3375420647171	2350.093113898762	699.3530633732194	915.0235182708136	2370.486263171296	947.5937898695927	1181.16155864138	nan	nan	nan	1662.816733014413	473.6977436658894	1064.066111140282	1670.906057357371	443.3055575143673	1104.009633281972	1706.49609799086	467.9713562881843	1072.541658837941	2339.76537418585	1027.489220815349	1195.250812799748	1709.560483546396	284.3939735093581	1013.612541684658	1667.267919711783	297.000594901459	1110.977396342624	2217.782874719192	1018.70903795593	1119.921515790472	1787.127246623805	429.6775865603482	1130.767624959667	1778.517033254062	470.9550215351965	1094.862344446168	1855.970200508143	467.1997651505151	1154.166225276237	1847.590814899476	505.4071319802953	1117.106547584416	2144.986463870972	612.6911119116613	1196.659413539254	2099.180216902972	640.5794548672761	1150.076441240582	2183.634043753271	713.954582275094	1219.363095776286	2135.451690774407	740.3996689259579	1177.943217656245	
2815	18.76	2363.521551251819	973.6702117422034	964.3660357749618	2556.169279002316	61.01758342320039	1015.736583355552	2580.577230832058	89.91661276662099	974.5369429930635	2544.876560898245	108.2103214667093	1014.078702994581	2305.595901450808	1034.069654471936	913.3352485778418	2734.529835247534	156.5586295156882	1070.362848591334	2721.133886017751	135.2540490733001	964.4396779211999	2209.52785977143	1014.578185549546	1017.537388778288	2575.956598612087	226.8238282430513	960.7696389423227	2535.963366444285	215.9609283346575	990.4403634596388	2546.169635444141	299.58286739201	940.5980805881275	2505.358080526406	293.5142585824182	973.9433411019705	2461.995367543128	639.2103569900372	917.5190410493269	2402.106734139709	603.4020444348995	937.3868263279268	2402.568459799647	728.7015448463482	897.3009051143632	2344.311699120636	694.7661051802413	915.3159828402386	2371.793611272494	947.8371289521159	1180.477726353502	nan	nan	nan	1669.632239338917	497.1073583305937	1059.227514872774	1675.475002898354	467.239472614931	1100.165109172335	1712.794097949019	489.1697139112182	1068.415717962622	2338.160993830155	1027.260583187902	1195.792030106754	1706.061358887861	304.9334980166794	1013.196100986806	1663.603401013991	321.7693534884016	1109.744454762397	2217.940183440895	1017.328435365757	1120.642794246725	1790.622448469561	446.1868876276205	1128.551215967235	1784.660322838303	487.6427875460974	1092.436543158933	1861.520545838374	479.6564089158386	1152.198364890449	1855.659490060159	517.9935124115382	1114.780109129041	2151.849203416572	608.5967971468677	1196.941025581711	2105.614836220066	635.8095602398901	1150.3589748171	2188.566442957173	710.4605859010273	1220.013953594493	2139.819146701354	736.1900890263387	1178.838595788289	
2816	18.76666666666667	2362.533063859118	972.9513033020698	964.0055376956371	2561.276566583249	52.85744602136124	1016.091103903162	2585.092953578272	82.20794514940275	974.8273428852091	2548.370043385418	99.76571688923165	1013.853474339052	2304.260083628501	1032.636498296124	913.1460674000522	2736.485682630831	154.9760574336892	1070.821409852419	2724.351001816114	132.0555566742577	965.0270667149226	2208.856506266739	1011.869359111859	1018.343568630354	2576.319228145948	219.7070744228457	960.234219167288	2536.112787784123	207.7228150665384	989.4564933762148	2544.425150694132	291.6149685456722	939.5486644616684	2503.214645838807	284.4343458693293	972.4344242604348	2454.593303029824	630.6262944553631	916.1215520841989	2393.866255962562	597.0019922637777	937.6450067317869	2397.650735714977	721.9271123166859	896.3820801181312	2338.648685504638	689.9146459329246	915.8196749500848	2372.991914602911	947.5001203668421	1179.806515015021	nan	nan	nan	1679.072236107206	519.6333344578206	1054.493227363727	1682.821666128613	490.5847401580311	1096.506245344804	1721.633953859403	509.4873027089527	1064.305709255635	2336.931072286316	1026.271768541578	1196.201230470953	1704.518672698538	324.8229476629942	1013.682297251599	1662.642423435491	346.4334695678198	1109.389225422649	2218.051770509539	1015.220852282562	1121.370996595646	1796.272676795056	462.1562429068297	1126.560093619212	1792.95291810668	503.4541209636482	1090.084757205424	1868.997462996843	491.4888373430353	1150.246397338991	1865.640778657857	529.6370340719769	1112.349106119682	2158.701036027362	604.0584165047638	1197.248713369628	2112.27271602035	630.423783826461	1150.366588599964	2193.396818381022	706.5360423130714	1220.50757551686	2144.325988238819	731.4390396015191	1179.281649664252	
